<svg width="101" height="44" viewBox="0 0 101 44" fill="none" xmlns="http://www.w3.org/2000/svg">
<path d="M16.0366 41.2671C16.3771 41.5263 16.7931 41.6666 17.221 41.6666C17.6489 41.6666 18.0649 41.5263 18.4054 41.2671C22.0386 38.5406 32.7759 29.6365 32.7759 19.4813V8.52617C32.7782 8.24358 32.6757 7.97018 32.4881 7.7588C32.3006 7.54743 32.0413 7.4131 31.7604 7.38177C27.3109 6.92603 23.0465 5.36296 19.3565 2.83528L18.001 1.90865C17.7714 1.75099 17.4995 1.6666 17.221 1.6666C16.9425 1.6666 16.6706 1.75099 16.441 1.90865L15.0855 2.83528C11.3955 5.36296 7.13105 6.92603 2.68157 7.38177C2.40071 7.4131 2.14145 7.54743 1.95388 7.7588C1.76631 7.97018 1.66376 8.24358 1.66605 8.52617V19.4813C1.66605 29.6365 12.4034 38.5406 16.0366 41.2627" fill="#1F5BF1"/>
<path d="M16.0366 41.2671C16.3771 41.5263 16.7931 41.6666 17.221 41.6666C17.6489 41.6666 18.0649 41.5263 18.4054 41.2671C22.0386 38.5405 32.7759 29.6365 32.7759 19.4813V8.52617C32.7782 8.24358 32.6757 7.97018 32.4881 7.7588C32.3006 7.54743 32.0413 7.4131 31.7604 7.38177C27.3109 6.92603 23.0465 5.36296 19.3565 2.83528L18.001 1.90865C17.7714 1.75099 17.4995 1.6666 17.221 1.6666C16.9425 1.6666 16.6706 1.75099 16.441 1.90865L15.0855 2.83528C11.3955 5.36296 7.13105 6.92603 2.68157 7.38177C2.40071 7.4131 2.14145 7.54743 1.95388 7.7588C1.76631 7.97018 1.66376 8.24358 1.66605 8.52617V19.4813C1.66605 29.6365 12.4034 38.5406 16.0366 41.2627" stroke="#1F5BF1" stroke-width="3.3332" stroke-linecap="round" stroke-linejoin="round"/>
<circle cx="17.4987" cy="19.9998" r="14.1667" fill="white"/>
<path d="M13.9705 21.3965V18.4321H17.7782C18.579 18.4321 19.1923 18.2276 19.6182 17.8187C20.0612 17.4098 20.2827 16.8561 20.2827 16.1576C20.2827 15.5102 20.0697 14.9735 19.6438 14.5476C19.2179 14.1217 18.6045 13.9087 17.8038 13.9087H13.9705V10.7909H18.2638C19.4564 10.7909 20.5042 11.0209 21.4071 11.4809C22.3101 11.9239 23.0171 12.5458 23.5282 13.3465C24.0394 14.1472 24.2949 15.0672 24.2949 16.1065C24.2949 17.1628 24.0394 18.0913 23.5282 18.8921C23.0171 19.6758 22.3016 20.2891 21.3816 20.7321C20.4616 21.175 19.3797 21.3965 18.136 21.3965H13.9705ZM10.9038 28.8332V10.7909H14.916V28.8332H10.9038ZM20.7171 28.8332L15.0949 21.0643L18.7749 20.0676L25.4705 28.8332H20.7171Z" fill="#1F5BF1"/>
<path d="M43.5322 13.6176V11.0946H46.7729C47.4544 11.0946 47.9764 10.9206 48.3389 10.5726C48.7159 10.2246 48.9044 9.75341 48.9044 9.15892C48.9044 8.60794 48.7231 8.1512 48.3606 7.78871C47.9981 7.42622 47.4761 7.24498 46.7947 7.24498H43.5322V4.59155H47.1861C48.2011 4.59155 49.0928 4.78729 49.8613 5.17878C50.6298 5.55577 51.2315 6.08501 51.6665 6.76649C52.1015 7.44797 52.319 8.23095 52.319 9.11543C52.319 10.0144 52.1015 10.8046 51.6665 11.4861C51.2315 12.1531 50.6226 12.6751 49.8396 13.0521C49.0566 13.4291 48.1359 13.6176 47.0774 13.6176H43.5322ZM40.9223 19.9466V4.59155H44.337V19.9466H40.9223ZM49.2741 19.9466L44.4892 13.3348L47.6211 12.4866L53.3195 19.9466H49.2741ZM54.8059 19.9466V9.37642H58.1336V19.9466H54.8059ZM56.4806 7.91921C55.9586 7.91921 55.5237 7.74521 55.1757 7.39722C54.8422 7.03473 54.6754 6.59974 54.6754 6.09226C54.6754 5.57027 54.8422 5.13528 55.1757 4.78729C55.5237 4.4393 55.9586 4.26531 56.4806 4.26531C57.0026 4.26531 57.4303 4.4393 57.7638 4.78729C58.0973 5.13528 58.2641 5.57027 58.2641 6.09226C58.2641 6.59974 58.0973 7.03473 57.7638 7.39722C57.4303 7.74521 57.0026 7.91921 56.4806 7.91921ZM63.8046 19.9466L59.3242 9.37642H62.9128L65.9578 18.1849H64.3918L67.4367 9.37642H70.9601L66.4797 19.9466H63.8046ZM76.2765 20.1641C75.305 20.1641 74.435 19.9249 73.6666 19.4464C72.9126 18.9679 72.3109 18.3154 71.8614 17.4889C71.4264 16.6625 71.2089 15.72 71.2089 14.6615C71.2089 13.6031 71.4264 12.6606 71.8614 11.8341C72.3109 11.0076 72.9126 10.3551 73.6666 9.87665C74.435 9.39817 75.305 9.15892 76.2765 9.15892C76.987 9.15892 77.625 9.29667 78.1904 9.57216C78.7704 9.84766 79.2417 10.2319 79.6042 10.7249C79.9666 11.2034 80.1696 11.7544 80.2131 12.3778V16.9452C80.1696 17.5687 79.9666 18.1269 79.6042 18.6199C79.2562 19.0984 78.7922 19.4754 78.2122 19.7509C77.6322 20.0264 76.987 20.1641 76.2765 20.1641ZM76.9507 17.1627C77.6612 17.1627 78.2339 16.9307 78.6689 16.4667C79.1039 15.9882 79.3214 15.3865 79.3214 14.6615C79.3214 14.1685 79.2199 13.7336 79.0169 13.3566C78.8284 12.9796 78.5529 12.6896 78.1904 12.4866C77.8425 12.2691 77.4365 12.1603 76.9725 12.1603C76.5085 12.1603 76.0953 12.2691 75.7328 12.4866C75.3848 12.6896 75.102 12.9796 74.8845 13.3566C74.6815 13.7336 74.58 14.1685 74.58 14.6615C74.58 15.14 74.6815 15.5678 74.8845 15.9447C75.0875 16.3217 75.3703 16.619 75.7328 16.8365C76.0953 17.054 76.5012 17.1627 76.9507 17.1627ZM79.1909 19.9466V17.0975L79.6912 14.531L79.1909 11.9646V9.37642H82.4533V19.9466H79.1909ZM84.7963 19.9466V4.15656H88.124V19.9466H84.7963Z" fill="#0E1C29"/>
<path d="M42.597 31.8179V30.0997H46.6859C47.5704 30.0997 48.2519 29.875 48.7304 29.4255C49.2088 28.976 49.4481 28.367 49.4481 27.5986C49.4481 26.8736 49.2088 26.2718 48.7304 25.7934C48.2664 25.3149 47.5921 25.0756 46.7077 25.0756H42.597V23.2922H46.7729C47.7299 23.2922 48.5636 23.4807 49.2741 23.8577C49.9846 24.2202 50.5283 24.7204 50.9053 25.3584C51.2968 25.9964 51.4925 26.7286 51.4925 27.5551C51.4925 28.4105 51.2968 29.1573 50.9053 29.7953C50.5283 30.4332 49.9846 30.9335 49.2741 31.296C48.5636 31.644 47.7299 31.8179 46.7729 31.8179H42.597ZM41.2268 38.3863V23.2922H43.2713V38.3863H41.2268ZM49.9266 38.3863L44.4457 31.6222L46.3814 30.948L52.5148 38.3863H49.9266ZM58.3346 38.6038C57.3921 38.6038 56.5366 38.3718 55.7682 37.9078C54.9997 37.4293 54.3907 36.7841 53.9412 35.9721C53.5062 35.1601 53.2887 34.2466 53.2887 33.2317C53.2887 32.2167 53.5062 31.3032 53.9412 30.4912C54.3907 29.6793 54.9924 29.034 55.7464 28.5555C56.5149 28.077 57.3776 27.8378 58.3346 27.8378C59.1176 27.8378 59.8136 28.0045 60.4225 28.338C61.046 28.657 61.5463 29.1065 61.9232 29.6865C62.3002 30.252 62.5105 30.9117 62.554 31.6657V34.7759C62.5105 35.5153 62.3002 36.1751 61.9232 36.7551C61.5608 37.335 61.0678 37.7918 60.4443 38.1253C59.8353 38.4443 59.1321 38.6038 58.3346 38.6038ZM58.6608 36.7551C59.6323 36.7551 60.4153 36.4288 61.0098 35.7763C61.6043 35.1094 61.9015 34.2611 61.9015 33.2317C61.9015 32.5212 61.7637 31.9049 61.4883 31.383C61.2273 30.8465 60.8503 30.4332 60.3573 30.1432C59.8643 29.8388 59.2916 29.6865 58.6391 29.6865C57.9866 29.6865 57.4066 29.8388 56.8991 30.1432C56.4061 30.4477 56.0147 30.8682 55.7247 31.4047C55.4492 31.9267 55.3114 32.5284 55.3114 33.2099C55.3114 33.9059 55.4492 34.5221 55.7247 35.0586C56.0147 35.5806 56.4134 35.9938 56.9209 36.2983C57.4284 36.6028 58.0084 36.7551 58.6608 36.7551ZM61.771 38.3863V35.6023L62.1407 33.0794L61.771 30.5782V28.0553H63.7502V38.3863H61.771ZM70.9717 38.6038C70.0147 38.6038 69.1592 38.3718 68.4052 37.9078C67.6513 37.4293 67.0495 36.7841 66.6 35.9721C66.1651 35.1601 65.9476 34.2466 65.9476 33.2317C65.9476 32.2167 66.1651 31.3032 66.6 30.4912C67.0495 29.6793 67.6513 29.034 68.4052 28.5555C69.1592 28.077 70.0147 27.8378 70.9717 27.8378C71.7402 27.8378 72.4361 28.0045 73.0596 28.338C73.6831 28.657 74.1833 29.1065 74.5603 29.6865C74.9518 30.252 75.1693 30.9117 75.2128 31.6657V34.7759C75.1693 35.5153 74.9591 36.1751 74.5821 36.7551C74.2051 37.335 73.7049 37.7918 73.0814 38.1253C72.4579 38.4443 71.7547 38.6038 70.9717 38.6038ZM71.2979 36.7551C71.9504 36.7551 72.5159 36.6028 72.9944 36.2983C73.4874 35.9938 73.8716 35.5806 74.1471 35.0586C74.4226 34.5221 74.5603 33.9131 74.5603 33.2317C74.5603 32.5212 74.4153 31.9049 74.1253 31.383C73.8499 30.861 73.4656 30.4477 72.9726 30.1432C72.4941 29.8388 71.9287 29.6865 71.2762 29.6865C70.6237 29.6865 70.051 29.8388 69.558 30.1432C69.065 30.4477 68.6735 30.8682 68.3835 31.4047C68.108 31.9267 67.9703 32.5284 67.9703 33.2099C67.9703 33.9059 68.108 34.5221 68.3835 35.0586C68.6735 35.5806 69.065 35.9938 69.558 36.2983C70.0655 36.6028 70.6454 36.7551 71.2979 36.7551ZM76.409 38.3863H74.4298V35.6023L74.7996 33.0794L74.4298 30.5782V22.8572H76.409V38.3863ZM83.6523 38.6038C82.7098 38.6038 81.8543 38.3718 81.0858 37.9078C80.3174 37.4293 79.7084 36.7841 79.2589 35.9721C78.8239 35.1601 78.6064 34.2466 78.6064 33.2317C78.6064 32.2167 78.8239 31.3032 79.2589 30.4912C79.7084 29.6793 80.3101 29.034 81.0641 28.5555C81.8326 28.077 82.6953 27.8378 83.6523 27.8378C84.4352 27.8378 85.1312 28.0045 85.7402 28.338C86.3637 28.657 86.8639 29.1065 87.2409 29.6865C87.6179 30.252 87.8282 30.9117 87.8716 31.6657V34.7759C87.8282 35.5153 87.6179 36.1751 87.2409 36.7551C86.8784 37.335 86.3854 37.7918 85.762 38.1253C85.153 38.4443 84.4497 38.6038 83.6523 38.6038ZM83.9785 36.7551C84.95 36.7551 85.733 36.4288 86.3274 35.7763C86.9219 35.1094 87.2192 34.2611 87.2192 33.2317C87.2192 32.5212 87.0814 31.9049 86.8059 31.383C86.5449 30.8465 86.1679 30.4332 85.675 30.1432C85.182 29.8388 84.6092 29.6865 83.9568 29.6865C83.3043 29.6865 82.7243 29.8388 82.2168 30.1432C81.7238 30.4477 81.3323 30.8682 81.0423 31.4047C80.7668 31.9267 80.6291 32.5284 80.6291 33.2099C80.6291 33.9059 80.7668 34.5221 81.0423 35.0586C81.3323 35.5806 81.7311 35.9938 82.2386 36.2983C82.746 36.6028 83.326 36.7551 83.9785 36.7551ZM87.0887 38.3863V35.6023L87.4584 33.0794L87.0887 30.5782V28.0553H89.0679V38.3863H87.0887ZM91.9177 38.3863V28.0553H93.8752V38.3863H91.9177ZM93.8752 32.4922L93.1357 32.1659C93.1357 30.8465 93.4402 29.7953 94.0492 29.0123C94.6581 28.2293 95.5354 27.8378 96.6808 27.8378C97.2028 27.8378 97.6741 27.9321 98.0946 28.1205C98.515 28.2945 98.9065 28.5918 99.269 29.0123L97.9858 30.339C97.7683 30.107 97.5291 29.9402 97.2681 29.8388C97.0071 29.7373 96.7026 29.6865 96.3546 29.6865C95.6296 29.6865 95.0351 29.9185 94.5711 30.3825C94.1072 30.8465 93.8752 31.5497 93.8752 32.4922Z" fill="#0E1C29"/>
</svg>
