<svg width="16" height="16" viewBox="0 0 16 16" fill="none" xmlns="http://www.w3.org/2000/svg">
<path d="M4 9.33333L2.66667 9.33333L2.66667 8L4 8L4 9.33333Z" fill="#0E1C29"/>
<path d="M5.33398 10.6663L4.00065 10.6663L4.00065 9.33301L5.33398 9.33301L5.33398 10.6663Z" fill="#0E1C29"/>
<path d="M6.66602 11.9993L5.33268 11.9993L5.33268 10.666L6.66602 10.666L6.66602 11.9993Z" fill="#0E1C29"/>
<path d="M8 10.6663L6.66667 10.6663L6.66667 9.33301L8 9.33301L8 10.6663Z" fill="#0E1C29"/>
<path d="M9.33203 9.33333L7.9987 9.33333L7.9987 8L9.33203 8L9.33203 9.33333Z" fill="#0E1C29"/>
<path d="M10.666 7.99935L9.33268 7.99935L9.33268 6.66602L10.666 6.66602L10.666 7.99935Z" fill="#0E1C29"/>
<path d="M12 6.66634L10.6667 6.66634L10.6667 5.33301L12 5.33301L12 6.66634Z" fill="#0E1C29"/>
<path d="M13.332 5.33333L11.9987 5.33333L11.9987 4L13.332 4L13.332 5.33333Z" fill="#0E1C29"/>
</svg>
