<svg width="53" height="40" viewBox="0 0 53 40" fill="none" xmlns="http://www.w3.org/2000/svg">
<path d="M0.877743 31.2226C4.89028 31.0554 8.06687 30.0522 10.4075 28.2132C12.7482 26.3741 14.1275 23.8662 14.5455 20.6897C14.629 19.9373 14.6708 18.767 14.6708 17.1787C13.3333 19.0178 11.2435 19.9373 8.40125 19.9373C6.1442 19.9373 4.17973 19.0596 2.50784 17.3041C0.835945 15.5486 0 13.2079 0 10.2821C0 7.27273 1.00313 4.80669 3.0094 2.88401C5.01567 0.961337 7.6489 0 10.9091 0C15.0888 0 18.2654 1.5465 20.4389 4.6395C22.6959 7.6489 23.8244 11.6614 23.8244 16.6771C23.8244 22.6959 21.9436 27.9624 18.1818 32.4765C14.5037 36.9906 8.73563 39.4984 0.877743 40V31.2226ZM29.2163 31.2226C33.2288 31.0554 36.4054 30.0522 38.7461 28.2132C41.0867 26.3741 42.466 23.8662 42.884 20.6897C42.9676 19.9373 43.0094 18.767 43.0094 17.1787C41.6719 19.0178 39.582 19.9373 36.7398 19.9373C34.4827 19.9373 32.5183 19.0596 30.8464 17.3041C29.1745 15.5486 28.3386 13.2079 28.3386 10.2821C28.3386 7.27273 29.3417 4.80669 31.348 2.88401C33.3542 0.961337 35.9875 0 39.2476 0C43.4274 0 46.604 1.5465 48.7774 4.6395C51.0345 7.6489 52.163 11.6614 52.163 16.6771C52.163 22.6959 50.2821 27.9624 46.5204 32.4765C42.8422 36.9906 37.0742 39.4984 29.2163 40V31.2226Z" fill="#1F5BF1"/>
</svg>
