<svg width="16" height="16" viewBox="0 0 16 16" fill="none" xmlns="http://www.w3.org/2000/svg">
<path d="M5.20078 11.2L5.60078 13.6L3.60078 12L2.80078 9.6L3.20078 7.2L4.40078 4.8L5.60078 6.8L6.80078 4.4L7.60078 2L9.20078 3.6L10.0008 5.6L11.2008 4L12.8008 7.2L13.2008 10.4L12.4008 12L10.4008 13.6L8.80078 14L10.0008 12V10L8.40078 8.8L7.20078 10L6.00078 9.2L5.20078 11.2Z" fill="#D2DEFC"/>
<path fill-rule="evenodd" clip-rule="evenodd" d="M10.4725 11.2189C10.5089 10.5273 10.3498 9.83948 10.0135 9.23408C9.67724 8.62868 9.17728 8.1302 8.57088 7.79571C8.46319 7.73342 8.33553 7.71537 8.21479 7.74537C8.09406 7.77536 7.98969 7.85106 7.92368 7.95651L7.15248 9.19091L6.51088 8.41491C6.47563 8.37237 6.43195 8.3376 6.38259 8.31278C6.33324 8.28796 6.27928 8.27363 6.22411 8.2707C6.16894 8.26777 6.11377 8.2763 6.06206 8.29575C6.01035 8.3152 5.96324 8.34515 5.92368 8.38371C5.54599 8.74919 5.25096 9.19133 5.05846 9.68038C4.86596 10.1694 4.78045 10.694 4.80768 11.2189C4.80768 11.97 5.10605 12.6903 5.63715 13.2214C6.16825 13.7525 6.88858 14.0509 7.63968 14.0509C8.39077 14.0509 9.1111 13.7525 9.6422 13.2214C10.1733 12.6903 10.4717 11.97 10.4717 11.2189M6.18928 9.28291L6.13968 9.34851C5.76346 9.87405 5.57495 10.5109 5.60448 11.1565L5.60688 11.2037C5.60688 11.7426 5.82096 12.2595 6.20204 12.6406C6.58311 13.0216 7.09996 13.2357 7.63888 13.2357C8.1778 13.2357 8.69464 13.0216 9.07572 12.6406C9.45679 12.2595 9.67088 11.7426 9.67088 11.2037L9.67328 11.1573C9.67888 11.1053 9.80368 9.67491 8.49488 8.70211L8.43008 8.65491L7.59488 9.99091C7.55455 10.0553 7.49949 10.1093 7.43425 10.1483C7.369 10.1873 7.29542 10.2102 7.21957 10.2152C7.14373 10.2202 7.06777 10.2071 6.99797 10.177C6.92817 10.1469 6.86651 10.1007 6.81808 10.0421L6.18928 9.28291Z" fill="#1F5BF1"/>
<path fill-rule="evenodd" clip-rule="evenodd" d="M7.17959 1.67187C7.19625 1.58598 7.23611 1.50629 7.29485 1.44144C7.35358 1.3766 7.42895 1.32907 7.51278 1.30401C7.59661 1.27895 7.68569 1.27732 7.77038 1.2993C7.85507 1.32127 7.93212 1.36602 7.99319 1.42867C8.14839 1.58707 8.44679 1.90067 8.74999 2.26227C9.04759 2.61667 9.37239 3.04307 9.55959 3.42307C9.74199 3.79427 9.93559 4.27427 10.0884 4.67507L10.7996 3.49107C10.8393 3.42495 10.8943 3.36935 10.96 3.32898C11.0257 3.28862 11.1001 3.26468 11.177 3.25918C11.2539 3.25369 11.331 3.26681 11.4018 3.29742C11.4726 3.32804 11.5349 3.37525 11.5836 3.43507C12.594 4.68307 13.0972 6.01987 13.3476 7.04067C13.4732 7.55187 13.5364 7.98627 13.5684 8.29507C13.5847 8.4493 13.5953 8.60407 13.6004 8.75907V8.79987C13.6004 11.9175 11.1276 14.4559 7.99879 14.4559C4.86999 14.4559 2.40039 11.9167 2.40039 8.79827C2.40039 7.93987 2.80599 5.91827 4.00599 4.26067C4.0526 4.19679 4.11427 4.14542 4.18553 4.11111C4.25678 4.07681 4.3354 4.06064 4.4144 4.06405C4.49341 4.06745 4.57035 4.09032 4.63839 4.13063C4.70642 4.17093 4.76345 4.22742 4.80439 4.29507L5.61639 5.64787C5.86279 5.26227 6.19239 4.72067 6.44279 4.22067C6.80279 3.50067 7.08839 2.14307 7.17959 1.67267M7.83799 2.43267C7.69319 3.07267 7.45399 3.98627 7.15799 4.57987C6.76439 5.36627 6.19719 6.23027 6.00199 6.52067C5.95683 6.5873 5.89564 6.6415 5.82405 6.67829C5.75246 6.71508 5.67277 6.73328 5.5923 6.73121C5.51184 6.72914 5.43319 6.70686 5.36358 6.66644C5.29398 6.62601 5.23566 6.56874 5.19399 6.49987L4.37799 5.14147C3.50119 6.55987 3.20039 8.15427 3.20039 8.79987C3.20039 11.4863 5.32359 13.6543 7.99879 13.6543C10.674 13.6543 12.8004 11.4863 12.8004 8.79987V8.77747L12.7972 8.69747C12.7916 8.59035 12.7833 8.48338 12.7724 8.37667C12.7305 7.99104 12.6631 7.60861 12.5708 7.23187C12.3166 6.18215 11.866 5.19003 11.2428 4.30787L10.4316 5.65827C10.3846 5.73628 10.3165 5.79935 10.2351 5.84015C10.1537 5.88095 10.0624 5.89781 9.97185 5.88876C9.88126 5.87971 9.79509 5.84512 9.72339 5.78903C9.65168 5.73293 9.59738 5.65762 9.56679 5.57187C9.43719 5.20867 9.11959 4.34147 8.84119 3.77667C8.69959 3.48787 8.42839 3.12307 8.13719 2.77667C8.03939 2.66034 7.93964 2.54566 7.83799 2.43267Z" fill="#1F5BF1"/>
</svg>
