<svg width="40" height="40" viewBox="0 0 40 40" fill="none" xmlns="http://www.w3.org/2000/svg">
<g opacity="0.6">
<path d="M14.375 31.25C11.2688 31.25 8.75 28.7312 8.75 25.625V14.375C8.75 11.2688 11.2688 8.75 14.375 8.75H25.625C28.7312 8.75 31.25 11.2688 31.25 14.375V25.625C31.25 28.7312 28.7312 31.25 25.625 31.25H14.375Z" stroke="#0E1C29" stroke-width="1.875" stroke-linecap="round" stroke-linejoin="round"/>
<path d="M15.3125 20C15.3125 17.4112 17.4112 15.3125 20 15.3125C22.5888 15.3125 24.6875 17.4112 24.6875 20C24.6875 22.5888 22.5888 24.6875 20 24.6875C17.4112 24.6875 15.3125 22.5888 15.3125 20Z" stroke="#0E1C29" stroke-width="1.875" stroke-miterlimit="10"/>
<path d="M24.6875 13.9062C24.6875 13.13 25.3175 12.5 26.0938 12.5C26.87 12.5 27.5 13.13 27.5 13.9062C27.5 14.6825 26.87 15.3125 26.0938 15.3125C25.3175 15.3125 24.6875 14.6825 24.6875 13.9062Z" fill="#0E1C29"/>
</g>
</svg>
