<svg width="24" height="24" viewBox="0 0 24 24" fill="none" xmlns="http://www.w3.org/2000/svg">
<path d="M0 3C0 1.34315 1.34315 0 3 0H21C22.6569 0 24 1.34315 24 3V21C24 22.6569 22.6569 24 21 24H3C1.34315 24 0 22.6569 0 21V3Z" fill="url(#paint0_linear_87_1398)"/>
<path d="M11.25 6C11.25 5.58579 11.5858 5.25 12 5.25C12.4142 5.25 12.75 5.58579 12.75 6V18C12.75 18.4142 12.4142 18.75 12 18.75C11.5858 18.75 11.25 18.4142 11.25 18V6Z" fill="white"/>
<path d="M18 11.25C18.4142 11.25 18.75 11.5858 18.75 12C18.75 12.4142 18.4142 12.75 18 12.75L6 12.75C5.58579 12.75 5.25 12.4142 5.25 12C5.25 11.5858 5.58579 11.25 6 11.25L18 11.25Z" fill="white"/>
<defs>
<linearGradient id="paint0_linear_87_1398" x1="12.0774" y1="0" x2="12.0774" y2="24" gradientUnits="userSpaceOnUse">
<stop offset="0.25" stop-color="#517CEE"/>
<stop offset="1" stop-color="#1F5BF1"/>
</linearGradient>
</defs>
</svg>
