<svg width="426" height="81" viewBox="0 0 426 81" fill="none" xmlns="http://www.w3.org/2000/svg">
<path d="M214 3.52637C214 24.2782 230.251 41.3958 250.975 42.4736L396.59 50.0469C412.794 50.8897 425.5 64.2741 425.5 80.5H423.5C423.5 65.3385 411.627 52.8316 396.486 52.0439L250.87 44.4707C234.037 43.595 220.013 32.6522 214.506 17.6592C216.894 32.3563 227.552 44.6466 242.215 48.8662L264.518 55.2842C275.758 58.5188 283.5 68.8034 283.5 80.5H281.5C281.5 69.6951 274.348 60.1953 263.965 57.207L241.661 50.7881C226.653 46.4691 215.639 34.1077 212.75 19.1992C209.861 34.1077 198.847 46.4691 183.839 50.7881L161.535 57.207C151.152 60.1953 144 69.6951 144 80.5H142C142 68.8034 149.742 58.5188 160.982 55.2842L183.285 48.8662C197.948 44.6466 208.605 32.3562 210.993 17.6592C205.486 32.652 191.463 43.595 174.63 44.4707L29.0137 52.0439C13.8727 52.8316 2 65.3385 2 80.5H0C0 64.2741 12.7062 50.8897 28.9102 50.0469L174.525 42.4736C195.249 41.3958 211.5 24.2782 211.5 3.52637V-84H214V3.52637Z" fill="url(#paint0_linear_87_1118)"/>
<defs>
<linearGradient id="paint0_linear_87_1118" x1="212.75" y1="-54.5" x2="212.75" y2="80.5" gradientUnits="userSpaceOnUse">
<stop stop-color="white"/>
<stop offset="1" stop-color="#1F5BF1"/>
</linearGradient>
</defs>
</svg>
