<svg width="426" height="99" viewBox="0 0 426 99" fill="none" xmlns="http://www.w3.org/2000/svg">
<path d="M211.5 76.9737C211.5 56.2218 195.249 39.1042 174.525 38.0264L28.9101 30.4532C12.7062 29.6104 -1.29625e-05 16.2259 -1.4381e-05 3.71984e-05L1.99999 3.70235e-05C1.99999 15.1616 13.8726 27.6684 29.0137 28.4561L174.63 36.0293C191.463 36.905 205.487 47.8478 210.994 62.8408C208.606 48.1437 197.948 35.8534 183.285 31.6338L160.982 25.2158C149.742 21.9812 142 11.6966 142 2.47844e-05L144 2.46095e-05C144 10.8049 151.152 20.3047 161.535 23.293L183.839 29.7119C198.847 34.0309 209.861 46.3923 212.75 61.3008C215.639 46.3923 226.653 34.0309 241.661 29.7119L263.965 23.293C274.348 20.3047 281.5 10.8049 281.5 1.25889e-05L283.5 1.2414e-05C283.5 11.6966 275.758 21.9812 264.518 25.2158L242.215 31.6338C227.552 35.8534 216.895 48.1438 214.507 62.8408C220.014 47.848 234.037 36.905 250.87 36.0293L396.486 28.4561C411.627 27.6684 423.5 15.1615 423.5 1.74846e-07L425.5 0C425.5 16.2259 412.794 29.6103 396.59 30.4531L250.975 38.0264C230.251 39.1042 214 56.2218 214 76.9737L214 164.5L211.5 164.5L211.5 76.9737Z" fill="url(#paint0_linear_87_1123)"/>
<defs>
<linearGradient id="paint0_linear_87_1123" x1="212.75" y1="135" x2="212.75" y2="1.45759e-05" gradientUnits="userSpaceOnUse">
<stop stop-color="white"/>
<stop offset="1" stop-color="#1F5BF1"/>
</linearGradient>
</defs>
</svg>
